<svg width="157" height="119" viewBox="0 0 157 119" fill="none" xmlns="http://www.w3.org/2000/svg">
<path d="M4.5 36.0008C20.5 21.0007 48.3681 4.87983 79 5.00068C109.382 5.12054 137.066 22.8051 153 36.0008" stroke="white" stroke-width="10"/>
<path d="M4 53.5007C20 68.5008 47.8681 84.6216 78.5 84.5008C108.882 84.3809 136.566 66.6964 152.5 53.5007" stroke="white" stroke-width="10"/>
<rect x="74" y="87.5007" width="9" height="31" fill="white"/>
<rect x="53.4919" y="79.8912" width="9" height="31" transform="rotate(19.7126 53.4919 79.8912)" fill="white"/>
<rect x="31.2072" y="69.5623" width="9" height="31" transform="rotate(33.1457 31.2072 69.5623)" fill="white"/>
<rect x="95.0361" y="82.9265" width="9" height="31" transform="rotate(-19.71 95.0361 82.9265)" fill="white"/>
<rect x="118.257" y="74.4842" width="9" height="31" transform="rotate(-33.15 118.257 74.4842)" fill="white"/>
</svg>
