<svg width="34" height="34" viewBox="0 0 34 34" fill="none" xmlns="http://www.w3.org/2000/svg">
<path d="M23.6493 25H21.2553C21.05 25 20.8867 24.9487 20.7653 24.846C20.6533 24.734 20.56 24.6127 20.4853 24.482L16.9153 18.924C16.878 19.0547 16.836 19.1853 16.7893 19.316C16.752 19.4373 16.696 19.5493 16.6213 19.652L13.3173 24.482C13.224 24.6127 13.1213 24.734 13.0093 24.846C12.9067 24.9487 12.762 25 12.5753 25H10.3493L15.3193 17.72L10.5453 10.818H12.9393C13.1447 10.818 13.294 10.8507 13.3873 10.916C13.4807 10.9813 13.5647 11.0747 13.6393 11.196L17.1253 16.516C17.2 16.2453 17.3167 15.984 17.4753 15.732L20.5273 11.252C20.6113 11.1213 20.7 11.0187 20.7933 10.944C20.896 10.86 21.0173 10.818 21.1573 10.818H23.4533L18.6793 17.594L23.6493 25Z" fill="white"/>
</svg>
